<?xml version="1.0" encoding="utf-8"?>
<svg id="Layer_1" data-name="Layer 1" xmlns="http://www.w3.org/2000/svg" viewBox="0 0 300 345">
  <defs>
    <style>
      .cls-1 {
        fill: #efbe22;
      }

      .cls-2 {
        fill: #ddb9a2;
      }

      .cls-3 {
        fill: #fff;
      }

      .cls-4 {
        fill: #965123;
      }

      .cls-5 {
        fill: #eef6ff;
      }

      .cls-6 {
        fill: #313033;
      }

      .cls-7 {
        stroke-linejoin: round;
      }

      .cls-7, .cls-8, .cls-9, .cls-10 {
        fill: none;
        stroke-linecap: round;
      }

      .cls-7, .cls-10 {
        stroke: #f47e1e;
        stroke-width: 5.95012px;
      }

      .cls-8 {
        stroke-width: 7.61611px;
      }

      .cls-8, .cls-9 {
        stroke: #403e42;
      }

      .cls-8, .cls-9, .cls-10 {
        stroke-miterlimit: 10;
      }

      .cls-9 {
        stroke-width: 7.89358px;
      }

      .cls-11, .cls-12 {
        fill: #343335;
      }

      .cls-13 {
        fill: #d9e5f4;
        opacity: .55;
      }

      .cls-14 {
        fill: #f99980;
      }

      .cls-15 {
        fill: #f2a700;
      }

      .cls-16 {
        fill: #540300;
      }

      .cls-17 {
        fill: #e5a43c;
      }

      .cls-18 {
        fill: #ddbca4;
      }

      .cls-19 {
        fill: #464449;
      }

      .cls-20 {
        fill: #e08600;
      }

      .cls-21 {
        fill: #30871e;
      }

      .cls-22 {
        fill: #b5c26b;
      }

      .cls-23, .cls-24 {
        fill: #7c371c;
      }

      .cls-25 {
        fill: #ea6f1c;
      }

      .cls-26 {
        fill: #63361f;
      }

      .cls-27 {
        fill: #a55a30;
      }

      .cls-28 {
        fill: url(#linear-gradient);
      }

      .cls-24 {
        opacity: .63;
      }

      .cls-29 {
        fill: #b61922;
      }

      .cls-12 {
        opacity: .6;
      }

      .cls-30 {
        fill: #dc1623;
      }

      .cls-31 {
        fill: #96452f;
      }

      .cls-32 {
        fill: #b1bec9;
      }

      .cls-33 {
        fill: #414042;
      }
    </style>
    <linearGradient gradientUnits="userSpaceOnUse" id="A" x1="150" y1="356.11" x2="150" y2="161.16" gradientTransform="matrix(1, 0, 0, 0.971286, 0.474976, 10.146733)">
      <stop style="stop-color:#d62728;stop-opacity:1" id="stop832" offset="0" stop-color="#0bc2cf"/>
      <stop style="stop-color:#193d3d;stop-opacity:1" id="stop834" offset="1" stop-color="#0b4fac"/>
    </linearGradient>
  </defs>
  <path id="path839" fill="url(#A)" d="M 264.095 345.241 L 36.855 345.241 C 16.762 345.241 0.475 329.421 0.475 309.906 L 0.475 261.846 L 300.475 261.846 L 300.475 309.906 C 300.475 329.421 284.187 345.241 264.095 345.241 Z" style="stroke-width: 1;"/>
  <path d="M 36.855 53.855 L 105.613 54.661 C 104.027 54.661 127.16 77.517 129.243 77.517 C 126.259 86.01 173.529 93.031 178.554 77.317 C 179.544 78.712 203.442 54.656 202.853 53.826 L 264.095 53.855 C 284.187 53.855 300.475 69.676 300.475 89.191 L 300.475 264.634 C 300.475 284.149 284.187 299.969 264.095 299.969 L 36.855 299.969 C 16.763 299.969 0.475 284.149 0.475 264.634 L 0.475 89.191 C 0.475 69.676 16.763 53.855 36.855 53.855 Z" style="fill: rgb(214, 39, 40); fill-opacity: 1; stroke-width: 1;" id="rect841" fill="#0bc2cf"/>
  <g transform="matrix(4.378719, 0, 0, 5.365148, -194.936142, -539.244568)" style="">
    <g>
      <ellipse class="cls-29" cx="203.977" cy="41.741" rx="2.428" ry="3.751" transform="matrix(0.287194, -0.957872, 0.957873, 0.287194, -20.02646, 302.451049)"/>
      <path class="cls-26" d="M 78.143 118.294 C 78.143 118.294 80.537 104.629 78.068 101.835 C 78.068 101.835 83.037 102.64 84.321 107.048 C 85.605 111.457 78.927 119.214 78.927 119.214 C 78.927 119.214 77.856 120.137 78.143 118.294 Z"/>
      <path class="cls-21" d="M 81.474 110.719 C 81.474 110.719 86.409 96.199 97.514 101.855 C 97.514 101.855 102.507 115.28 81.474 110.719 Z"/>
    </g>
  </g>
  <ellipse class="cls-14" cx="187.825" cy="42.786" rx="47.743" ry="29.57" transform="matrix(0.561381, -0.827558, 0.842589, 0.539223, -89.877727, 268.661343)" style=""/>
</svg>